<svg width="16" height="16" viewBox="0 0 16 16" fill="none" xmlns="http://www.w3.org/2000/svg">
<g clip-path="url(#clip0_47_896)">
<path d="M1.33334 6.00006V3.3334C1.33334 2.97978 1.47382 2.64064 1.72387 2.39059C1.97392 2.14054 2.31305 2.00006 2.66668 2.00006H5.26668C5.48967 1.99788 5.70965 2.05166 5.90648 2.15648C6.10331 2.2613 6.2707 2.41381 6.39334 2.60006L6.93334 3.40006C7.05475 3.58442 7.22003 3.73574 7.41434 3.84047C7.60866 3.94519 7.82594 4.00003 8.04668 4.00006H13.3333C13.687 4.00006 14.0261 4.14054 14.2762 4.39059C14.5262 4.64064 14.6667 4.97978 14.6667 5.3334V12.0001C14.6667 12.3537 14.5262 12.6928 14.2762 12.9429C14.0261 13.1929 13.687 13.3334 13.3333 13.3334H2.66668C2.31305 13.3334 1.97392 13.1929 1.72387 12.9429C1.47382 12.6928 1.33334 12.3537 1.33334 12.0001V11.3334" stroke="#7A6558" stroke-width="1.33333" stroke-linecap="round" stroke-linejoin="round"/>
<path d="M1.33334 8.66675H8.00001" stroke="#7A6558" stroke-width="1.33333" stroke-linecap="round" stroke-linejoin="round"/>
<path d="M6 10.6667L8 8.66675L6 6.66675" stroke="#7A6558" stroke-width="1.33333" stroke-linecap="round" stroke-linejoin="round"/>
</g>
<defs>
<clipPath id="clip0_47_896">
<rect width="16" height="16" fill="white"/>
</clipPath>
</defs>
</svg>
